# xmcd
#
# Track frame offsets:
#	150
#	20269
#	35145
#	49604
#	62069
#	79063
#	91718
#	108026
#	121393
#	137517
#	149219
#	163542
#	178291
#	191734
#	207705
#	228112
#	240615
#	249976
#	259206
#	273271
#	289018
#	300045
#
# Disc length: 4214 seconds
#
# Revision: 1
# Processed by: cddbd v1.5.2PL0 Copyright (c) Steve Scherf et al.
# Submitted via: audiograbber 1.83.01
#
DISCID=32107416
DTITLE=Simon Diaz - Simon Diaz Canta con....
DYEAR=2013
DGENRE=Country
TTITLE0=El Alcaravan - Ricardo Montaner
TTITLE1=Cristal - Gualberto Ibarreto
TTITLE2=El Becerrito - Lilia Vera
TTITLE3=Tonada de Luna Llena - Ilan Chester
TTITLE4=Caballo Viejo - Yordano
TTITLE5=Barbacoas - Jesus Sevillano
TTITLE6=Sabana - Luz Marina
TTITLE7=El Cuatro y el Interes - Betulio Medina
TTITLE8=Que Vale Mas - Wladimir Lozano
TTITLE9=Corral de Ordeño - Maria Teresa Chacin
TTITLE10=El Corazon de Bolivar - Francisco Pacheco
TTITLE11=Mi Caballito - Serenata Guayanesa
TTITLE12=Caballo Viejo - Oscar de Leon
TTITLE13=El Loco Juan Carabina - Cecilia Todd
TTITLE14=La Pena del Becerrero - Frank Quintero
TTITLE15=Mercedes - La Rondalla Venezolana
TTITLE16=Las Cabañuelas - Rosa Virginia Chacin
TTITLE17=Lagrimas en el Caney - Cristobal Jimenez
TTITLE18=Clavelito Colorao - Esperanza Marquez
TTITLE19=El Becerrito - Oscar de Leon 
TTITLE20=Despedida - Lila Morillo
TTITLE21=Canto a la Madre (Como yo la tengo) - Simon Diaz
EXTD=
EXTT0=
EXTT1=
EXTT2=
EXTT3=
EXTT4=
EXTT5=
EXTT6=
EXTT7=
EXTT8=
EXTT9=
EXTT10=
EXTT11=
EXTT12=
EXTT13=
EXTT14=
EXTT15=
EXTT16=
EXTT17=
EXTT18=
EXTT19=
EXTT20=
EXTT21=
PLAYORDER=
